# xmcd
#
# Track frame offsets:
#	150
#	21853
#	32261
#	42980
#	55621
#	70244
#	83287
#	93731
#	105170
#	118110
#	130096
#	140905
#	152425
#	165029
#	177305
#	189522
#	200642
#	212142
#	226911
#	241433
#	253943
#
# Disc length: 3560
#
# Revision: 1
# Processed by: cddbd v1.5.1PL0 Copyright (c) Steve Scherf et al.
# Submitted via: dBpowerAMP V4.0
# Normalized: r0:TDELIM( - )
#
DISCID=120de615
DTITLE=Various Artist - Wardell Quezerque's Funky Funky New Orleans
DYEAR=1900
DGENRE=Funk
TTITLE0=Unemployed - Funky Thing (1&2)
TTITLE1=Unemployed - They Won't Let Me
TTITLE2=Unemployed - Funky Rooster
TTITLE3=Denise Keeble - Love School
TTITLE4=C.L. Blast - Everybody Just Don't Know What Love Is
TTITLE5=Denise Keeble - Chain On My Thing
TTITLE6=Klicky Robinson - When I Wanna See You
TTITLE7=Chuck Simmons - Lay It On Me (Part 1)
TTITLE8=Chuck Simmons - Lay It On Me (Part 2)
TTITLE9=C.L. Blast - Love Is Good
TTITLE10=Curtis Johnson - Sho-Nuff the Real Thing
TTITLE11=Joe Wilson - Other Side of Your Mind
TTITLE12=C.L. Blast - Got to Find Someone
TTITLE13=Johnny Adams - More Than One Way
TTITLE14=C.L. Blast - Two Times One Is Two
TTITLE15=Denny Fox - Where You Gonna Find a Love Like Mine
TTITLE16=Denise Keeble - Before It Falls Apart
TTITLE17=Chuck Simmons - Everybody Needs Somebody
TTITLE18=Denise Keeble - Giving Up
TTITLE19=Irma Thomas - She's Taking My Part
TTITLE20=Tami Lynn - Never No More
EXTD=
EXTT0=
EXTT1=
EXTT2=
EXTT3=
EXTT4=
EXTT5=
EXTT6=
EXTT7=
EXTT8=
EXTT9=
EXTT10=
EXTT11=
EXTT12=
EXTT13=
EXTT14=
EXTT15=
EXTT16=
EXTT17=
EXTT18=
EXTT19=
EXTT20=
PLAYORDER=
